<?xml version="1.0" encoding="UTF-8"?>
<svg id="Layer_1" data-name="Layer 1" xmlns="http://www.w3.org/2000/svg" viewBox="0 0 1920 1080">
  <polygon points="678.93 500.34 652.27 561.47 625.89 500.34 609.94 500.34 644.62 579.66 659.1 579.66 693.68 500.34 678.93 500.34"/>
  <polygon points="724.05 500.34 688.38 579.66 703.56 579.66 711.43 561.3 716.35 549.72 731.2 515.04 746.12 549.72 751.09 561.3 758.95 579.66 774.36 579.66 738.58 500.34 724.05 500.34"/>
  <path d="M835.15,553.22c5.03-2.24,8.9-5.46,11.64-9.67,2.73-4.15,4.1-9.18,4.1-15.02,0-8.79-3-15.73-9.01-20.7-6.01-4.97-14.31-7.48-24.91-7.48h-32.5v79.32h14.75v-23.11h17.86c1.04,0,2.08,0,3.11-.11l16.17,23.22h15.9l-18.24-26c.38-.11.76-.27,1.15-.44ZM799.21,512.8h17.21c6.5,0,11.42,1.37,14.69,4.1,3.28,2.73,4.92,6.61,4.92,11.64s-1.64,8.9-4.92,11.69c-3.28,2.79-8.19,4.21-14.69,4.21h-17.21v-31.63Z"/>
  <polygon points="882.02 500.34 867.33 500.34 867.33 579.66 923.54 579.66 923.54 567.2 882.02 567.2 882.02 500.34"/>
  <rect x="935.17" y="500.34" width="14.75" height="79.32"/>
  <rect x="1002.63" y="500.34" width="14.69" height="79.32"/>
  <polygon points="1075.18 579.66 1057.91 579.66 1057.1 578.57 1021.75 536.39 1056.55 500.34 1073.1 500.34 1039.72 535.74 1075.18 579.66"/>
  <polygon points="1099.98 545.46 1138.27 545.46 1138.27 533.34 1099.98 533.34 1099.98 512.69 1143.13 512.69 1143.13 500.34 1085.23 500.34 1085.23 579.66 1144.71 579.66 1144.71 567.31 1099.98 567.31 1099.98 545.46"/>
  <polygon points="1231.68 500.34 1231.68 558.14 1217.04 540.22 1217.04 500.34 1231.68 500.34"/>
  <polygon points="1217.04 554.04 1231.68 571.96 1231.68 579.66 1219.55 579.66 1175.8 525.96 1175.8 579.66 1161.16 579.66 1161.16 500.34 1173.28 500.34 1217.04 554.04"/>
  <polygon points="1242.77 500.34 1242.77 512.8 1269.04 512.8 1269.04 579.66 1283.79 579.66 1283.79 512.8 1310.06 512.8 1310.06 500.34 1242.77 500.34"/>
</svg>